<svg xmlns="http://www.w3.org/2000/svg" width="180" height="180" viewBox="0 0 180 180">
  <rect width="180" height="180" rx="28" fill="#f6f3ee"/>
  <rect x="46" y="28" width="46" height="112" rx="16" fill="#3a3a3a" opacity="0.92"/>
  <rect x="54" y="18" width="30" height="24" rx="10" fill="#3a3a3a" opacity="0.92"/>
  <rect x="52" y="72" width="34" height="36" rx="8" fill="#ffffff" opacity="0.92"/>
  <text x="69" y="94" text-anchor="middle" font-family="ui-sans-serif, system-ui, -apple-system, Segoe UI, Roboto, Helvetica, Arial" font-size="12" font-weight="800" fill="#3a3a3a">
    OB
  </text>

  <ellipse cx="128" cy="126" rx="20" ry="8" fill="#d9d2c8" opacity="0.55"/>
  <path d="M112 58 h32 v12 c0 10-6 18-16 20 v20 h10 v12 h-20 v-12 h10 v-20 c-10-2-16-10-16-20z" fill="#ffffff" opacity="0.92" stroke="#d9d2c8" stroke-width="2"/>
  <path d="M118 114 h20 v6 c0 6-4 10-10 10s-10-4-10-10z" fill="#f4c2c2" opacity="0.7"/>
</svg>